<svg width="173" height="173" viewBox="0 0 173 173" fill="none" xmlns="http://www.w3.org/2000/svg">
<path d="M54.9558 39.2577C47.3162 39.4302 40.7856 44.4329 35.3639 54.2412C29.6712 65.2816 26.8618 77.5543 26.9111 91.0591C27.0097 92.6856 27.1822 92.8335 27.4533 91.5273C29.7451 81.5959 32.1356 73.833 34.6246 68.2142C37.0644 62.5708 39.7752 57.9377 42.7325 54.3644C49.5342 46.4537 55.4241 45.1722 60.4268 50.5199C65.8977 56.8288 68.8057 67.4749 69.1507 82.4091C68.855 102.494 66.2181 117.675 61.24 128C55.0051 140.569 48.5977 144.758 42.0917 140.519C33.2199 133.447 28.2912 117.773 27.3054 93.5481C26.9604 92.7103 26.64 93.3264 26.3936 95.3964C25.9253 97.9101 25.605 100.67 25.4078 103.603C24.6685 116.763 26.4182 127.926 30.6323 137.094C34.945 145.793 40.687 150.204 47.8584 150.352C55.5966 150.229 62.6447 145.177 69.0275 135.147C75.3856 124.673 79.4765 111.908 81.2755 96.8011C81.9409 80.7333 79.7722 67.056 74.7942 55.7691C69.7668 45.0244 63.1869 39.5041 55.0791 39.2084" fill="white"/>
<path d="M111.637 33.2939C107.669 26.7879 100.079 23.6088 88.8658 23.806C76.47 24.3974 64.4191 28.094 52.7379 34.8957C51.3825 35.7829 51.3332 36.0293 52.59 35.6104C62.349 32.6285 70.2597 30.8048 76.3467 30.1641C82.4584 29.4494 87.8061 29.4741 92.3899 30.2627C102.642 32.2095 106.708 36.6701 104.564 43.6689C101.829 51.555 94.0657 59.3917 81.3002 67.1792C63.7537 76.9628 49.2878 82.2859 37.8777 83.1238C23.8553 84.011 17.0536 80.5608 17.4725 72.798C19.2222 61.5604 30.312 49.4603 50.791 36.4729C51.3332 35.7583 50.6432 35.8076 48.7456 36.6208C46.3305 37.4833 43.7922 38.5677 41.1306 39.8738C29.3755 45.813 20.553 52.9104 14.7371 61.1415C9.36469 69.2246 8.40358 76.4207 11.8537 82.6802C15.8214 89.3094 23.7321 92.8828 35.6104 93.4003C47.8584 93.6714 60.969 90.8373 74.942 84.8242C89.1862 77.3571 99.9556 68.6578 107.226 58.7017C114.027 48.9674 115.506 40.5145 111.711 33.3432" fill="white"/>
<path d="M145.152 79.4026C148.8 72.6994 147.765 64.5423 141.973 54.9312C135.246 44.4822 126.029 35.9061 114.298 29.203C112.844 28.4637 112.623 28.5376 113.608 29.4248C121.075 36.3744 126.596 42.3382 130.218 47.267C133.89 52.2204 136.552 56.8534 138.154 61.2154C141.604 71.0729 139.755 76.815 132.633 78.4415C124.427 80.0187 113.781 77.2093 100.646 70.0625C83.4196 59.7614 71.5659 49.8792 65.1092 40.4406C57.3463 28.7348 56.9274 21.1198 63.8523 17.5957C74.4245 13.4556 90.4431 17.0289 111.933 28.2912C112.82 28.3897 112.45 27.8229 110.774 26.5907C108.827 24.915 106.609 23.2638 104.145 21.6127C93.1293 14.392 82.5817 10.3258 72.527 9.38931C62.8419 8.77322 56.1388 11.5333 52.4176 17.6697C48.6471 24.4221 49.5096 33.0721 55.0052 43.595C60.8951 54.3397 69.9147 64.2712 82.0888 73.3648C95.6676 81.9655 108.606 86.9436 120.854 88.2497C132.683 89.2601 140.766 86.3275 145.054 79.4519" fill="white"/>
<path d="M121.987 131.475C129.627 131.303 136.158 126.3 141.579 116.492C147.272 105.451 150.081 93.1785 150.032 79.6737C149.933 78.0472 149.761 77.8993 149.49 79.2054C147.198 89.1369 144.808 96.8997 142.318 102.519C139.879 108.162 137.168 112.795 134.211 116.368C127.409 124.279 121.519 125.561 116.516 120.213C111.045 113.904 108.137 103.258 107.792 88.3237C108.088 68.2389 110.725 53.0583 115.703 42.7325C121.938 30.1641 128.345 25.9747 134.851 30.2134C143.723 37.2862 148.652 52.9597 149.638 77.1846C149.983 78.0225 150.303 77.4064 150.55 75.3363C151.018 72.8227 151.338 70.0625 151.535 67.1299C152.275 53.9701 150.525 42.8064 146.311 33.6389C141.998 24.9396 136.256 20.5284 129.085 20.3805C121.347 20.5037 114.298 25.5557 107.916 35.5858C101.558 46.0594 97.4666 58.8249 95.6676 73.9316C95.0022 89.9994 97.1709 103.677 102.149 114.964C107.176 125.708 113.756 131.229 121.864 131.524" fill="white"/>
<path d="M31.7906 91.3302C28.1433 98.0333 29.1784 106.19 34.9697 115.802C41.6975 126.251 50.9143 134.827 62.6448 141.53C64.0987 142.269 64.3205 142.195 63.3348 141.308C55.8677 134.358 50.3475 128.395 46.7248 123.466C43.0529 118.512 40.3913 113.879 38.7895 109.517C35.3393 99.6598 37.1876 93.9178 44.3097 92.2913C52.5161 90.7141 63.1623 93.5235 76.2975 100.67C93.5235 110.971 105.377 120.854 111.834 130.292C119.597 141.998 120.016 149.613 113.091 153.137C102.519 157.277 86.5 153.704 65.0106 142.442C64.1234 142.343 64.493 142.91 66.1688 144.142C68.1157 145.818 70.3336 147.469 72.798 149.12C83.8138 156.341 94.3614 160.407 104.416 161.343C114.101 161.96 120.804 159.199 124.526 153.063C128.296 146.311 127.434 137.661 121.938 127.138C116.048 116.393 107.028 106.462 94.8543 97.3679C81.2755 88.7672 68.3375 83.7892 56.0895 82.4831C44.2604 81.4727 36.1772 84.4053 31.8892 91.2809" fill="white"/>
<path d="M65.3063 137.439C69.2739 143.945 76.8642 147.124 88.0772 146.927C100.473 146.335 112.524 142.639 124.205 135.837C125.561 134.95 125.61 134.703 124.353 135.122C114.594 138.104 106.683 139.928 100.596 140.569C94.4846 141.283 89.1369 141.259 84.5531 140.47C74.3013 138.523 70.235 134.063 72.3791 127.064C75.1145 119.178 82.8774 111.341 95.6429 103.554C113.189 93.77 127.655 88.4469 139.065 87.609C153.088 86.7218 159.889 90.1719 159.471 97.9348C157.77 109.148 146.68 121.248 126.177 134.235C125.634 134.95 126.325 134.901 128.222 134.087C130.637 133.225 133.176 132.14 135.837 130.834C147.592 124.895 156.415 117.798 162.231 109.567C167.603 101.483 168.564 94.2875 165.114 88.0279C161.146 81.3987 153.236 77.8254 141.382 77.3078C129.134 77.0368 116.023 79.8708 102.05 85.8839C87.8061 93.351 77.0368 102.05 69.7668 112.006C62.9651 121.741 61.4865 130.194 65.2816 137.365" fill="white"/>
</svg>
