<svg width="124" height="106" viewBox="0 0 124 106" fill="none" xmlns="http://www.w3.org/2000/svg">
<g clip-path="url(#clip0_2_25)">
<path d="M49.0038 28.8208L43.8597 50.9542H26.9046L31.7102 30.1786H21.896L17.0566 50.9542H0L5.11014 28.8208H1.69207L8.22373 0.169636H25.2803L21.3886 17.3808H31.1691L35.1287 0.169636H52.1174L45.5181 28.8208H49.0038ZM73.8452 28.8208L68.769 50.9542H51.6448L56.721 28.8208H53.2691L59.9023 0.169636H76.9925L70.4272 28.8208H73.8452ZM107.315 27.7345L102.171 50.9542H85.0133L90.2926 27.7345H87.2129L90.631 12.8659H77.0939L80.0721 0H124L121.123 12.8659H107.62L104.304 27.7345H107.315Z" fill="#1E1E1E"/>
<path d="M3.50904 76.004H1.47517L5.63232 57.6874C9.52124 57.6874 16.5392 57.3062 22.0822 58.0461C26.977 58.7635 31.7152 60.5794 30.8883 66.4758C30.419 70.0405 27.6922 73.6948 24.7421 76.0041H26.7536C26.2172 76.4077 25.6808 76.8337 25.0997 77.1251L32.7434 91.339H19.3331L13.7456 80.3759L11.2646 91.339H0L3.50904 76.004ZM15.0419 65.9821L13.6785 71.7663C19.0649 71.7663 22.0823 65.9821 15.0419 65.9821ZM38.2862 76.6317H35.716L46.2206 57.8217H57.3733L59.1837 76.6317H61.687L63.0951 91.2267H51.5847L51.1153 84.9269H44.7455C43.6279 87.0119 42.5775 89.1194 41.4601 91.2267H30.1508L38.2862 76.6317ZM50.8247 77.1025V76.6317H48.3884L48.4331 69.1884L45.4381 76.6317H47.9191L47.7403 77.1025H50.8247ZM75.1196 76.6317H77.6676C77.2653 82.0347 80.9308 86.0927 91.2566 79.4341H94.609L92.5081 88.5813C81.1764 95.1279 64.3688 93.1549 66.8269 76.6317H64.3013C64.4354 76.0264 64.5695 75.3089 64.7483 74.5242C67.028 64.5028 74.6496 57.2163 85.2658 57.2163C91.1217 57.2163 94.4965 58.8978 96.508 60.2878L94.34 69.6591H90.7416C82.6506 60.9155 75.6561 69.8386 75.1196 76.6317ZM97.9617 76.7214H95.682L100.063 57.7994H124L122.078 66.2964H109.316L108.645 69.1661H120.379L118.658 76.7214H120.938L120.737 77.6182H108.981L107.796 82.8645H120.513L118.591 91.339H94.6082L97.9617 76.7214Z" fill="#1E1E1E"/>
<path d="M16.2718 99.6637V100.449H13.2353V102.387H16.063V103.172H13.2353V105.843H12.4V99.6637H16.2718ZM26.5282 99.5067C27.4446 99.5067 28.2089 99.8121 28.8208 100.423C29.4327 101.034 29.7387 101.811 29.7387 102.753C29.7387 103.353 29.6024 103.901 29.3298 104.398C29.0572 104.896 28.6729 105.287 28.177 105.572C27.681 105.857 27.1314 106 26.5282 106C25.9308 106 25.3855 105.859 24.8925 105.577C24.3994 105.294 24.0137 104.905 23.7353 104.407C23.4569 103.91 23.3176 103.358 23.3176 102.753C23.3176 101.834 23.6178 101.063 24.2182 100.441C24.8185 99.818 25.5885 99.5067 26.5282 99.5067ZM24.2051 102.753C24.2051 103.452 24.4226 104.036 24.8577 104.508C25.2927 104.979 25.8495 105.214 26.5282 105.214C27.1952 105.214 27.7492 104.982 28.19 104.516C28.6309 104.051 28.8513 103.463 28.8513 102.753C28.8513 102.049 28.6338 101.463 28.1987 100.995C27.7637 100.526 27.204 100.292 26.5195 100.292C25.8582 100.292 25.3072 100.525 24.8664 100.99C24.4255 101.456 24.2051 102.043 24.2051 102.753ZM39.4557 99.6637C40.0589 99.6637 40.5317 99.815 40.8739 100.118C41.2161 100.42 41.3872 100.845 41.3872 101.392C41.3872 101.805 41.2466 102.166 40.9652 102.474C40.6839 102.782 40.3228 102.966 39.882 103.024H39.8733L41.6221 105.843H40.5781L39.0119 103.12H38.081V105.843H37.2457V99.6637H39.4557ZM39.2121 102.387C39.6471 102.387 39.9704 102.307 40.1822 102.147C40.3939 101.987 40.4998 101.735 40.4998 101.392C40.4998 100.729 40.0705 100.397 39.2121 100.397H38.081V102.387L39.2121 102.387ZM50.0514 99.6637L52.009 104.342H52.0438L53.9841 99.6637H55.2283V105.843H54.393V100.763H54.3756L52.2961 105.843H51.7393L49.6598 100.763H49.6424V105.843H48.8072V99.6637H50.0514ZM63.7793 99.6637V103.478C63.7793 103.984 63.92 104.4 64.2013 104.726C64.4826 105.052 64.8582 105.214 65.328 105.214C65.7979 105.214 66.1734 105.052 66.4548 104.726C66.7361 104.4 66.8768 103.984 66.8768 103.478V99.6637H67.712V103.617C67.712 104.042 67.612 104.439 67.4118 104.809C67.2117 105.178 66.9275 105.469 66.5592 105.681C66.1908 105.894 65.7805 106 65.328 106C64.632 106 64.0606 105.772 63.614 105.315C63.1674 104.858 62.944 104.292 62.944 103.617V99.6637H63.7793ZM76.324 99.6637V105.057H79.1517V105.843H75.4887V99.6637H76.324ZM88.9991 99.6637L91.6354 105.843H90.6609L90.0432 104.316H87.1111L86.502 105.843H85.5275L88.2422 99.6637H88.9991ZM87.4069 103.582H89.7387L88.5902 100.746H88.5728L87.4069 103.582ZM111.443 99.6637V100.449H108.302V102.291H111.226V103.076H108.302V105.057H111.6V105.843H107.467V99.6637H111.443Z" fill="#1E1E1E"/>
</g>
<defs>
<clipPath id="clip0_2_25">
<rect width="124" height="106" fill="white"/>
</clipPath>
</defs>
</svg>
